<mxfile host="app.diagrams.net" agent="Mozilla/5.0 (Windows NT 10.0; Win64; x64) AppleWebKit/537.36 (KHTML, like Gecko) Chrome/136.0.0.0 Safari/537.36" version="27.0.9">
  <diagram name="Page-1" id="jVYiQnik44d4IpPQ-ab7">
    <mxGraphModel dx="1603" dy="865" grid="1" gridSize="10" guides="1" tooltips="1" connect="1" arrows="1" fold="1" page="1" pageScale="1" pageWidth="850" pageHeight="1100" math="0" shadow="0">
      <root>
        <mxCell id="0" />
        <mxCell id="1" parent="0" />
        <mxCell id="J7tuSH9F-MjHQ3tNd6hQ-1" value="" style="rounded=0;whiteSpace=wrap;html=1;direction=south;" parent="1" vertex="1">
          <mxGeometry x="80" y="40" width="720" height="770" as="geometry" />
        </mxCell>
        <mxCell id="J7tuSH9F-MjHQ3tNd6hQ-2" value="" style="endArrow=none;html=1;rounded=0;entryX=0;entryY=0.75;entryDx=0;entryDy=0;exitX=1;exitY=0.75;exitDx=0;exitDy=0;" parent="1" source="J7tuSH9F-MjHQ3tNd6hQ-1" target="J7tuSH9F-MjHQ3tNd6hQ-1" edge="1">
          <mxGeometry width="50" height="50" relative="1" as="geometry">
            <mxPoint x="690" y="340" as="sourcePoint" />
            <mxPoint x="740" y="290" as="targetPoint" />
          </mxGeometry>
        </mxCell>
        <mxCell id="J7tuSH9F-MjHQ3tNd6hQ-3" value="" style="endArrow=none;html=1;rounded=0;entryX=0;entryY=0.25;entryDx=0;entryDy=0;exitX=1;exitY=0.25;exitDx=0;exitDy=0;" parent="1" source="J7tuSH9F-MjHQ3tNd6hQ-1" target="J7tuSH9F-MjHQ3tNd6hQ-1" edge="1">
          <mxGeometry width="50" height="50" relative="1" as="geometry">
            <mxPoint x="700" y="310" as="sourcePoint" />
            <mxPoint x="750" y="260" as="targetPoint" />
          </mxGeometry>
        </mxCell>
        <mxCell id="J7tuSH9F-MjHQ3tNd6hQ-4" value="" style="endArrow=none;html=1;rounded=0;entryX=0;entryY=0.5;entryDx=0;entryDy=0;exitX=1;exitY=0.5;exitDx=0;exitDy=0;" parent="1" source="J7tuSH9F-MjHQ3tNd6hQ-1" target="J7tuSH9F-MjHQ3tNd6hQ-1" edge="1">
          <mxGeometry width="50" height="50" relative="1" as="geometry">
            <mxPoint x="700" y="310" as="sourcePoint" />
            <mxPoint x="750" y="260" as="targetPoint" />
          </mxGeometry>
        </mxCell>
        <mxCell id="J7tuSH9F-MjHQ3tNd6hQ-5" value="" style="endArrow=none;html=1;rounded=0;entryX=0.045;entryY=-0.001;entryDx=0;entryDy=0;entryPerimeter=0;exitX=0.044;exitY=0.997;exitDx=0;exitDy=0;exitPerimeter=0;" parent="1" target="J7tuSH9F-MjHQ3tNd6hQ-1" edge="1" source="J7tuSH9F-MjHQ3tNd6hQ-1">
          <mxGeometry width="50" height="50" relative="1" as="geometry">
            <mxPoint x="90" y="77" as="sourcePoint" />
            <mxPoint x="610" y="360" as="targetPoint" />
          </mxGeometry>
        </mxCell>
        <mxCell id="J7tuSH9F-MjHQ3tNd6hQ-6" value="&lt;b&gt;&lt;font style=&quot;font-size: 15px;&quot;&gt;SUSTAV&lt;/font&gt;&lt;/b&gt;" style="text;html=1;align=center;verticalAlign=middle;whiteSpace=wrap;rounded=0;" parent="1" vertex="1">
          <mxGeometry x="320" y="40" width="60" height="30" as="geometry" />
        </mxCell>
        <mxCell id="J7tuSH9F-MjHQ3tNd6hQ-7" value="&lt;b&gt;&lt;font style=&quot;font-size: 15px;&quot;&gt;DJELATNIK&lt;/font&gt;&lt;/b&gt;" style="text;html=1;align=center;verticalAlign=middle;whiteSpace=wrap;rounded=0;" parent="1" vertex="1">
          <mxGeometry x="140" y="40" width="60" height="30" as="geometry" />
        </mxCell>
        <mxCell id="J7tuSH9F-MjHQ3tNd6hQ-8" value="&lt;b&gt;&lt;font style=&quot;font-size: 15px;&quot;&gt;KORISNIK&lt;/font&gt;&lt;/b&gt;" style="text;html=1;align=center;verticalAlign=middle;whiteSpace=wrap;rounded=0;" parent="1" vertex="1">
          <mxGeometry x="500" y="40" width="60" height="30" as="geometry" />
        </mxCell>
        <mxCell id="J7tuSH9F-MjHQ3tNd6hQ-9" value="&lt;b&gt;&lt;font style=&quot;font-size: 15px;&quot;&gt;ADMINISTRATOR&lt;/font&gt;&lt;/b&gt;" style="text;html=1;align=center;verticalAlign=middle;whiteSpace=wrap;rounded=0;" parent="1" vertex="1">
          <mxGeometry x="680" y="40" width="60" height="30" as="geometry" />
        </mxCell>
        <mxCell id="J7tuSH9F-MjHQ3tNd6hQ-10" value="" style="edgeStyle=orthogonalEdgeStyle;rounded=0;orthogonalLoop=1;jettySize=auto;html=1;" parent="1" source="J7tuSH9F-MjHQ3tNd6hQ-11" target="J7tuSH9F-MjHQ3tNd6hQ-14" edge="1">
          <mxGeometry relative="1" as="geometry">
            <Array as="points">
              <mxPoint x="540" y="180" />
            </Array>
          </mxGeometry>
        </mxCell>
        <mxCell id="J7tuSH9F-MjHQ3tNd6hQ-11" value="" style="verticalLabelPosition=bottom;verticalAlign=top;html=1;shape=mxgraph.flowchart.on-page_reference;labelBackgroundColor=none;labelBorderColor=none;fillColor=#000000;fontColor=#ffffff;strokeColor=#6F0000;" parent="1" vertex="1">
          <mxGeometry x="512.5" y="80" width="35" height="35" as="geometry" />
        </mxCell>
        <mxCell id="J7tuSH9F-MjHQ3tNd6hQ-12" value="" style="edgeStyle=orthogonalEdgeStyle;rounded=0;orthogonalLoop=1;jettySize=auto;html=1;" parent="1" source="J7tuSH9F-MjHQ3tNd6hQ-14" target="J7tuSH9F-MjHQ3tNd6hQ-17" edge="1">
          <mxGeometry relative="1" as="geometry" />
        </mxCell>
        <mxCell id="J7tuSH9F-MjHQ3tNd6hQ-13" value="" style="edgeStyle=orthogonalEdgeStyle;rounded=0;orthogonalLoop=1;jettySize=auto;html=1;" parent="1" source="J7tuSH9F-MjHQ3tNd6hQ-14" edge="1">
          <mxGeometry relative="1" as="geometry">
            <mxPoint x="390" y="160" as="targetPoint" />
            <Array as="points">
              <mxPoint x="420" y="160" />
              <mxPoint x="420" y="160" />
            </Array>
          </mxGeometry>
        </mxCell>
        <mxCell id="J7tuSH9F-MjHQ3tNd6hQ-43" value="" style="edgeStyle=none;curved=1;rounded=0;orthogonalLoop=1;jettySize=auto;html=1;fontSize=12;startSize=8;endSize=8;" parent="1" source="J7tuSH9F-MjHQ3tNd6hQ-14" target="J7tuSH9F-MjHQ3tNd6hQ-41" edge="1">
          <mxGeometry relative="1" as="geometry" />
        </mxCell>
        <mxCell id="J7tuSH9F-MjHQ3tNd6hQ-14" value="&lt;b&gt;REGISTRACIJA&lt;/b&gt;&lt;div&gt;&lt;b&gt;I PRIJAVA&lt;/b&gt;&lt;/div&gt;" style="rounded=1;whiteSpace=wrap;html=1;" parent="1" vertex="1">
          <mxGeometry x="485" y="140" width="90" height="40" as="geometry" />
        </mxCell>
        <mxCell id="J7tuSH9F-MjHQ3tNd6hQ-15" value="" style="edgeStyle=orthogonalEdgeStyle;rounded=0;orthogonalLoop=1;jettySize=auto;html=1;" parent="1" source="J7tuSH9F-MjHQ3tNd6hQ-17" target="J7tuSH9F-MjHQ3tNd6hQ-24" edge="1">
          <mxGeometry relative="1" as="geometry" />
        </mxCell>
        <mxCell id="J7tuSH9F-MjHQ3tNd6hQ-16" value="" style="edgeStyle=orthogonalEdgeStyle;rounded=0;orthogonalLoop=1;jettySize=auto;html=1;" parent="1" source="J7tuSH9F-MjHQ3tNd6hQ-17" target="J7tuSH9F-MjHQ3tNd6hQ-27" edge="1">
          <mxGeometry relative="1" as="geometry" />
        </mxCell>
        <mxCell id="J7tuSH9F-MjHQ3tNd6hQ-17" value="&lt;b&gt;PREGLED DOSTUPNIH&lt;/b&gt;&lt;div&gt;&lt;b&gt;HODOČAŠĆA&lt;/b&gt;&lt;/div&gt;" style="rounded=1;whiteSpace=wrap;html=1;" parent="1" vertex="1">
          <mxGeometry x="485" y="210" width="90" height="50" as="geometry" />
        </mxCell>
        <mxCell id="J7tuSH9F-MjHQ3tNd6hQ-18" style="edgeStyle=orthogonalEdgeStyle;rounded=0;orthogonalLoop=1;jettySize=auto;html=1;entryX=0.17;entryY=0.072;entryDx=0;entryDy=0;entryPerimeter=0;" parent="1" source="J7tuSH9F-MjHQ3tNd6hQ-22" target="J7tuSH9F-MjHQ3tNd6hQ-14" edge="1">
          <mxGeometry relative="1" as="geometry">
            <Array as="points">
              <mxPoint x="350" y="120" />
              <mxPoint x="500" y="120" />
            </Array>
          </mxGeometry>
        </mxCell>
        <mxCell id="J7tuSH9F-MjHQ3tNd6hQ-19" value="Neuspjeh" style="edgeLabel;html=1;align=center;verticalAlign=middle;resizable=0;points=[];" parent="J7tuSH9F-MjHQ3tNd6hQ-18" vertex="1" connectable="0">
          <mxGeometry x="-0.2055" y="-3" relative="1" as="geometry">
            <mxPoint x="-1" y="-3" as="offset" />
          </mxGeometry>
        </mxCell>
        <mxCell id="J7tuSH9F-MjHQ3tNd6hQ-20" value="" style="edgeStyle=orthogonalEdgeStyle;rounded=0;orthogonalLoop=1;jettySize=auto;html=1;entryX=0.5;entryY=0;entryDx=0;entryDy=0;" parent="1" source="J7tuSH9F-MjHQ3tNd6hQ-22" target="J7tuSH9F-MjHQ3tNd6hQ-17" edge="1">
          <mxGeometry relative="1" as="geometry">
            <mxPoint x="350" y="270" as="targetPoint" />
            <Array as="points">
              <mxPoint x="350" y="200" />
              <mxPoint x="530" y="200" />
            </Array>
          </mxGeometry>
        </mxCell>
        <mxCell id="J7tuSH9F-MjHQ3tNd6hQ-21" value="Uspjeh" style="edgeLabel;html=1;align=center;verticalAlign=middle;resizable=0;points=[];" parent="J7tuSH9F-MjHQ3tNd6hQ-20" vertex="1" connectable="0">
          <mxGeometry x="-0.1082" y="1" relative="1" as="geometry">
            <mxPoint as="offset" />
          </mxGeometry>
        </mxCell>
        <mxCell id="J7tuSH9F-MjHQ3tNd6hQ-22" value="&lt;b&gt;Provjera&lt;/b&gt;" style="rhombus;whiteSpace=wrap;html=1;" parent="1" vertex="1">
          <mxGeometry x="310" y="130" width="80" height="60" as="geometry" />
        </mxCell>
        <mxCell id="J7tuSH9F-MjHQ3tNd6hQ-23" value="" style="edgeStyle=orthogonalEdgeStyle;rounded=0;orthogonalLoop=1;jettySize=auto;html=1;" parent="1" source="J7tuSH9F-MjHQ3tNd6hQ-24" target="J7tuSH9F-MjHQ3tNd6hQ-26" edge="1">
          <mxGeometry relative="1" as="geometry" />
        </mxCell>
        <mxCell id="J7tuSH9F-MjHQ3tNd6hQ-24" value="&lt;b&gt;PRIJAVA NA HODOČAŠĆE&lt;/b&gt;" style="rounded=1;whiteSpace=wrap;html=1;" parent="1" vertex="1">
          <mxGeometry x="485" y="300" width="90" height="60" as="geometry" />
        </mxCell>
        <mxCell id="J7tuSH9F-MjHQ3tNd6hQ-25" value="" style="edgeStyle=orthogonalEdgeStyle;rounded=0;orthogonalLoop=1;jettySize=auto;html=1;" parent="1" source="J7tuSH9F-MjHQ3tNd6hQ-26" target="J7tuSH9F-MjHQ3tNd6hQ-28" edge="1">
          <mxGeometry relative="1" as="geometry">
            <Array as="points">
              <mxPoint x="530" y="480" />
              <mxPoint x="530" y="480" />
            </Array>
          </mxGeometry>
        </mxCell>
        <mxCell id="J7tuSH9F-MjHQ3tNd6hQ-26" value="&lt;b&gt;ISPUNJAVANJE OBRASCA&lt;/b&gt;" style="rounded=1;whiteSpace=wrap;html=1;" parent="1" vertex="1">
          <mxGeometry x="482.5" y="390" width="95" height="60" as="geometry" />
        </mxCell>
        <mxCell id="J7tuSH9F-MjHQ3tNd6hQ-27" value="&lt;b&gt;PRIKAZ DOSTUPNIH HODOČAŠĆA&lt;/b&gt;" style="rounded=1;whiteSpace=wrap;html=1;" parent="1" vertex="1">
          <mxGeometry x="310" y="210" width="80" height="50" as="geometry" />
        </mxCell>
        <mxCell id="J7tuSH9F-MjHQ3tNd6hQ-50" value="" style="edgeStyle=none;curved=1;rounded=0;orthogonalLoop=1;jettySize=auto;html=1;fontSize=12;startSize=8;endSize=8;" parent="1" source="J7tuSH9F-MjHQ3tNd6hQ-28" target="J7tuSH9F-MjHQ3tNd6hQ-49" edge="1">
          <mxGeometry relative="1" as="geometry" />
        </mxCell>
        <mxCell id="J7tuSH9F-MjHQ3tNd6hQ-68" value="" style="edgeStyle=none;curved=1;rounded=0;orthogonalLoop=1;jettySize=auto;html=1;fontSize=12;startSize=8;endSize=8;" parent="1" source="J7tuSH9F-MjHQ3tNd6hQ-28" target="J7tuSH9F-MjHQ3tNd6hQ-67" edge="1">
          <mxGeometry relative="1" as="geometry" />
        </mxCell>
        <mxCell id="J7tuSH9F-MjHQ3tNd6hQ-28" value="&lt;b&gt;SLANJE OBRASCA&lt;/b&gt;" style="rounded=1;whiteSpace=wrap;html=1;" parent="1" vertex="1">
          <mxGeometry x="482.5" y="490" width="100" height="40" as="geometry" />
        </mxCell>
        <mxCell id="J7tuSH9F-MjHQ3tNd6hQ-77" value="" style="edgeStyle=none;curved=1;rounded=0;orthogonalLoop=1;jettySize=auto;html=1;fontSize=12;startSize=8;endSize=8;" parent="1" source="J7tuSH9F-MjHQ3tNd6hQ-29" target="J7tuSH9F-MjHQ3tNd6hQ-76" edge="1">
          <mxGeometry relative="1" as="geometry" />
        </mxCell>
        <mxCell id="J7tuSH9F-MjHQ3tNd6hQ-29" value="&lt;b&gt;PRIJAVA&lt;/b&gt;" style="rounded=1;whiteSpace=wrap;html=1;" parent="1" vertex="1">
          <mxGeometry x="110" y="140" width="100" height="35" as="geometry" />
        </mxCell>
        <mxCell id="J7tuSH9F-MjHQ3tNd6hQ-60" value="" style="edgeStyle=none;curved=1;rounded=0;orthogonalLoop=1;jettySize=auto;html=1;fontSize=12;startSize=8;endSize=8;" parent="1" source="J7tuSH9F-MjHQ3tNd6hQ-39" target="J7tuSH9F-MjHQ3tNd6hQ-59" edge="1">
          <mxGeometry relative="1" as="geometry" />
        </mxCell>
        <mxCell id="J7tuSH9F-MjHQ3tNd6hQ-39" value="&lt;b&gt;PREGLED PRISTIGLIH&lt;/b&gt;&lt;div&gt;&lt;b&gt;PRIJAVA&lt;/b&gt;&lt;/div&gt;" style="rounded=1;whiteSpace=wrap;html=1;" parent="1" vertex="1">
          <mxGeometry x="110" y="485" width="100" height="50" as="geometry" />
        </mxCell>
        <mxCell id="J7tuSH9F-MjHQ3tNd6hQ-41" value="UPRAVLJANJE&lt;div&gt;KORISNICIMA I DJELATNICIMA&lt;/div&gt;" style="rounded=1;whiteSpace=wrap;html=1;" parent="1" vertex="1">
          <mxGeometry x="650" y="135" width="100" height="50" as="geometry" />
        </mxCell>
        <mxCell id="J7tuSH9F-MjHQ3tNd6hQ-49" value="&lt;b&gt;VALIDACIJA PODATAKA&lt;/b&gt;" style="rhombus;whiteSpace=wrap;html=1;" parent="1" vertex="1">
          <mxGeometry x="310" y="470" width="90" height="80" as="geometry" />
        </mxCell>
        <mxCell id="J7tuSH9F-MjHQ3tNd6hQ-51" value="&lt;b&gt;ZAHTJEV ZA DOPUNU&lt;/b&gt;" style="rounded=1;whiteSpace=wrap;html=1;" parent="1" vertex="1">
          <mxGeometry x="370" y="590" width="60" height="50" as="geometry" />
        </mxCell>
        <mxCell id="J7tuSH9F-MjHQ3tNd6hQ-52" value="" style="endArrow=classic;html=1;rounded=0;fontSize=12;startSize=8;endSize=8;curved=1;exitX=1;exitY=0.5;exitDx=0;exitDy=0;entryX=0.5;entryY=0;entryDx=0;entryDy=0;" parent="1" source="J7tuSH9F-MjHQ3tNd6hQ-49" target="J7tuSH9F-MjHQ3tNd6hQ-51" edge="1">
          <mxGeometry width="50" height="50" relative="1" as="geometry">
            <mxPoint x="560" y="470" as="sourcePoint" />
            <mxPoint x="610" y="420" as="targetPoint" />
          </mxGeometry>
        </mxCell>
        <mxCell id="J7tuSH9F-MjHQ3tNd6hQ-53" value="Nedostaju&amp;nbsp;&lt;div&gt;podaci&lt;/div&gt;" style="edgeLabel;html=1;align=center;verticalAlign=middle;resizable=0;points=[];fontSize=12;" parent="J7tuSH9F-MjHQ3tNd6hQ-52" vertex="1" connectable="0">
          <mxGeometry x="-0.5867" y="-2" relative="1" as="geometry">
            <mxPoint x="-8" y="33" as="offset" />
          </mxGeometry>
        </mxCell>
        <mxCell id="J7tuSH9F-MjHQ3tNd6hQ-54" value="" style="endArrow=classic;html=1;rounded=0;fontSize=12;startSize=8;endSize=8;curved=1;exitX=1;exitY=0.5;exitDx=0;exitDy=0;entryX=0;entryY=0.5;entryDx=0;entryDy=0;" parent="1" source="J7tuSH9F-MjHQ3tNd6hQ-51" target="J7tuSH9F-MjHQ3tNd6hQ-26" edge="1">
          <mxGeometry width="50" height="50" relative="1" as="geometry">
            <mxPoint x="560" y="470" as="sourcePoint" />
            <mxPoint x="610" y="420" as="targetPoint" />
          </mxGeometry>
        </mxCell>
        <mxCell id="J7tuSH9F-MjHQ3tNd6hQ-55" value="&lt;b&gt;SPREMANJE&lt;/b&gt;&lt;div&gt;&lt;b&gt;U BAZU&lt;/b&gt;&lt;/div&gt;" style="rounded=1;whiteSpace=wrap;html=1;" parent="1" vertex="1">
          <mxGeometry x="270" y="592.5" width="80" height="45" as="geometry" />
        </mxCell>
        <mxCell id="J7tuSH9F-MjHQ3tNd6hQ-56" value="" style="endArrow=classic;html=1;rounded=0;fontSize=12;startSize=8;endSize=8;curved=1;exitX=0;exitY=0.5;exitDx=0;exitDy=0;entryX=0.5;entryY=0;entryDx=0;entryDy=0;" parent="1" source="J7tuSH9F-MjHQ3tNd6hQ-49" target="J7tuSH9F-MjHQ3tNd6hQ-55" edge="1">
          <mxGeometry width="50" height="50" relative="1" as="geometry">
            <mxPoint x="560" y="470" as="sourcePoint" />
            <mxPoint x="610" y="420" as="targetPoint" />
          </mxGeometry>
        </mxCell>
        <mxCell id="J7tuSH9F-MjHQ3tNd6hQ-57" value="Sve&amp;nbsp;&lt;div&gt;ispunjeno&lt;/div&gt;" style="edgeLabel;html=1;align=center;verticalAlign=middle;resizable=0;points=[];fontSize=12;" parent="J7tuSH9F-MjHQ3tNd6hQ-56" vertex="1" connectable="0">
          <mxGeometry x="0.0521" y="-1" relative="1" as="geometry">
            <mxPoint x="11" as="offset" />
          </mxGeometry>
        </mxCell>
        <mxCell id="J7tuSH9F-MjHQ3tNd6hQ-58" value="" style="endArrow=classic;html=1;rounded=0;fontSize=12;startSize=8;endSize=8;curved=1;entryX=1;entryY=0.5;entryDx=0;entryDy=0;" parent="1" target="J7tuSH9F-MjHQ3tNd6hQ-39" edge="1">
          <mxGeometry width="50" height="50" relative="1" as="geometry">
            <mxPoint x="270" y="510" as="sourcePoint" />
            <mxPoint x="610" y="460" as="targetPoint" />
          </mxGeometry>
        </mxCell>
        <mxCell id="J7tuSH9F-MjHQ3tNd6hQ-59" value="&lt;b&gt;PROVJERA&lt;/b&gt;&lt;div&gt;&lt;b&gt;ISPUNJENOG OBRASCA&lt;/b&gt;&lt;/div&gt;" style="rhombus;whiteSpace=wrap;html=1;" parent="1" vertex="1">
          <mxGeometry x="105" y="571.25" width="110" height="87.5" as="geometry" />
        </mxCell>
        <mxCell id="J7tuSH9F-MjHQ3tNd6hQ-61" value="&lt;b&gt;SLANJE POTVRDE PRIJAVE&lt;/b&gt;" style="rounded=1;whiteSpace=wrap;html=1;" parent="1" vertex="1">
          <mxGeometry x="190" y="670" width="70" height="50" as="geometry" />
        </mxCell>
        <mxCell id="J7tuSH9F-MjHQ3tNd6hQ-62" value="" style="endArrow=classic;html=1;rounded=0;fontSize=12;startSize=8;endSize=8;curved=1;exitX=1;exitY=0.5;exitDx=0;exitDy=0;" parent="1" source="J7tuSH9F-MjHQ3tNd6hQ-59" edge="1">
          <mxGeometry width="50" height="50" relative="1" as="geometry">
            <mxPoint x="550" y="510" as="sourcePoint" />
            <mxPoint x="215" y="670" as="targetPoint" />
          </mxGeometry>
        </mxCell>
        <mxCell id="J7tuSH9F-MjHQ3tNd6hQ-63" value="&amp;nbsp;prijava&lt;div&gt;&amp;nbsp;valjana&lt;/div&gt;" style="edgeLabel;html=1;align=center;verticalAlign=middle;resizable=0;points=[];fontSize=12;" parent="J7tuSH9F-MjHQ3tNd6hQ-62" vertex="1" connectable="0">
          <mxGeometry x="-0.1273" relative="1" as="geometry">
            <mxPoint x="10" y="1" as="offset" />
          </mxGeometry>
        </mxCell>
        <mxCell id="J7tuSH9F-MjHQ3tNd6hQ-67" value="&lt;b&gt;USPJEŠNA PRIJAVA NA HODOČAŠĆE&lt;/b&gt;" style="rounded=1;whiteSpace=wrap;html=1;" parent="1" vertex="1">
          <mxGeometry x="477.5" y="595" width="110" height="45" as="geometry" />
        </mxCell>
        <mxCell id="J7tuSH9F-MjHQ3tNd6hQ-69" value="&lt;b&gt;BRISANJE IZ BAZE&lt;/b&gt;" style="rounded=1;whiteSpace=wrap;html=1;" parent="1" vertex="1">
          <mxGeometry x="90" y="690" width="80" height="40" as="geometry" />
        </mxCell>
        <mxCell id="J7tuSH9F-MjHQ3tNd6hQ-72" value="" style="endArrow=classic;html=1;rounded=0;fontSize=12;startSize=8;endSize=8;curved=1;exitX=0;exitY=0.5;exitDx=0;exitDy=0;entryX=0.25;entryY=0;entryDx=0;entryDy=0;" parent="1" source="J7tuSH9F-MjHQ3tNd6hQ-59" target="J7tuSH9F-MjHQ3tNd6hQ-69" edge="1">
          <mxGeometry width="50" height="50" relative="1" as="geometry">
            <mxPoint x="530" y="600" as="sourcePoint" />
            <mxPoint x="580" y="550" as="targetPoint" />
          </mxGeometry>
        </mxCell>
        <mxCell id="J7tuSH9F-MjHQ3tNd6hQ-73" value="&lt;font style=&quot;font-size: 10px;&quot;&gt;Prijava&amp;nbsp;&lt;/font&gt;&lt;div&gt;&lt;font style=&quot;font-size: 10px;&quot;&gt;nije&lt;/font&gt;&lt;/div&gt;&lt;div&gt;&lt;font style=&quot;font-size: 10px;&quot;&gt;valjana&lt;/font&gt;&lt;/div&gt;" style="edgeLabel;html=1;align=center;verticalAlign=middle;resizable=0;points=[];fontSize=12;" parent="J7tuSH9F-MjHQ3tNd6hQ-72" vertex="1" connectable="0">
          <mxGeometry x="0.0786" y="3" relative="1" as="geometry">
            <mxPoint x="-6" as="offset" />
          </mxGeometry>
        </mxCell>
        <mxCell id="J7tuSH9F-MjHQ3tNd6hQ-74" value="&lt;b&gt;PRIKAZ HODOČAŠĆA&lt;/b&gt;" style="rounded=1;whiteSpace=wrap;html=1;" parent="1" vertex="1">
          <mxGeometry x="305" y="290" width="100" height="50" as="geometry" />
        </mxCell>
        <mxCell id="J7tuSH9F-MjHQ3tNd6hQ-78" value="" style="edgeStyle=none;curved=1;rounded=0;orthogonalLoop=1;jettySize=auto;html=1;fontSize=12;startSize=8;endSize=8;" parent="1" source="J7tuSH9F-MjHQ3tNd6hQ-76" target="J7tuSH9F-MjHQ3tNd6hQ-74" edge="1">
          <mxGeometry relative="1" as="geometry" />
        </mxCell>
        <mxCell id="J7tuSH9F-MjHQ3tNd6hQ-79" value="" style="edgeStyle=none;curved=1;rounded=0;orthogonalLoop=1;jettySize=auto;html=1;fontSize=12;startSize=8;endSize=8;" parent="1" source="J7tuSH9F-MjHQ3tNd6hQ-76" target="J7tuSH9F-MjHQ3tNd6hQ-39" edge="1">
          <mxGeometry relative="1" as="geometry" />
        </mxCell>
        <mxCell id="J7tuSH9F-MjHQ3tNd6hQ-76" value="&lt;b&gt;PREGLED HODOČAŠĆA&lt;/b&gt;" style="rounded=1;whiteSpace=wrap;html=1;" parent="1" vertex="1">
          <mxGeometry x="100" y="290" width="120" height="45" as="geometry" />
        </mxCell>
        <mxCell id="J7tuSH9F-MjHQ3tNd6hQ-82" value="" style="ellipse;whiteSpace=wrap;html=1;aspect=fixed;" parent="1" vertex="1">
          <mxGeometry x="502.5" y="680" width="55" height="55" as="geometry" />
        </mxCell>
        <mxCell id="J7tuSH9F-MjHQ3tNd6hQ-84" value="" style="ellipse;whiteSpace=wrap;html=1;aspect=fixed;fillColor=#000000;" parent="1" vertex="1">
          <mxGeometry x="510" y="687.5" width="40" height="40" as="geometry" />
        </mxCell>
        <mxCell id="J7tuSH9F-MjHQ3tNd6hQ-89" value="" style="endArrow=classic;html=1;rounded=0;fontSize=12;startSize=8;endSize=8;curved=1;exitX=0.5;exitY=1;exitDx=0;exitDy=0;entryX=0.5;entryY=0;entryDx=0;entryDy=0;" parent="1" source="J7tuSH9F-MjHQ3tNd6hQ-67" target="J7tuSH9F-MjHQ3tNd6hQ-82" edge="1">
          <mxGeometry width="50" height="50" relative="1" as="geometry">
            <mxPoint x="350" y="630" as="sourcePoint" />
            <mxPoint x="400" y="580" as="targetPoint" />
          </mxGeometry>
        </mxCell>
        <mxCell id="CvsQD0FOoQV3qZYTWTIA-4" value="" style="endArrow=none;html=1;rounded=0;exitX=0;exitY=0.5;exitDx=0;exitDy=0;" edge="1" parent="1" source="J7tuSH9F-MjHQ3tNd6hQ-55">
          <mxGeometry width="50" height="50" relative="1" as="geometry">
            <mxPoint x="350" y="570" as="sourcePoint" />
            <mxPoint x="270" y="510" as="targetPoint" />
          </mxGeometry>
        </mxCell>
        <mxCell id="CvsQD0FOoQV3qZYTWTIA-5" value="" style="endArrow=none;html=1;rounded=0;entryX=0.5;entryY=0;entryDx=0;entryDy=0;" edge="1" parent="1" target="J7tuSH9F-MjHQ3tNd6hQ-29">
          <mxGeometry width="50" height="50" relative="1" as="geometry">
            <mxPoint x="160" y="90" as="sourcePoint" />
            <mxPoint x="150" y="260" as="targetPoint" />
          </mxGeometry>
        </mxCell>
        <mxCell id="CvsQD0FOoQV3qZYTWTIA-7" value="" style="endArrow=none;html=1;rounded=0;entryX=0.065;entryY=0.167;entryDx=0;entryDy=0;entryPerimeter=0;" edge="1" parent="1" target="J7tuSH9F-MjHQ3tNd6hQ-1">
          <mxGeometry width="50" height="50" relative="1" as="geometry">
            <mxPoint x="160" y="90" as="sourcePoint" />
            <mxPoint x="80" y="60" as="targetPoint" />
          </mxGeometry>
        </mxCell>
        <mxCell id="CvsQD0FOoQV3qZYTWTIA-8" value="" style="endArrow=classic;html=1;rounded=0;entryX=0.305;entryY=0.078;entryDx=0;entryDy=0;entryPerimeter=0;" edge="1" parent="1" target="J7tuSH9F-MjHQ3tNd6hQ-41">
          <mxGeometry width="50" height="50" relative="1" as="geometry">
            <mxPoint x="680" y="90" as="sourcePoint" />
            <mxPoint x="540" y="50" as="targetPoint" />
          </mxGeometry>
        </mxCell>
        <mxCell id="CvsQD0FOoQV3qZYTWTIA-9" value="" style="endArrow=none;html=1;rounded=0;exitX=1;exitY=0.5;exitDx=0;exitDy=0;" edge="1" parent="1" source="J7tuSH9F-MjHQ3tNd6hQ-61">
          <mxGeometry width="50" height="50" relative="1" as="geometry">
            <mxPoint x="460" y="440" as="sourcePoint" />
            <mxPoint x="490" y="690" as="targetPoint" />
          </mxGeometry>
        </mxCell>
        <mxCell id="CvsQD0FOoQV3qZYTWTIA-10" value="" style="endArrow=classic;html=1;rounded=0;entryX=0.122;entryY=0.936;entryDx=0;entryDy=0;entryPerimeter=0;" edge="1" parent="1">
          <mxGeometry width="50" height="50" relative="1" as="geometry">
            <mxPoint x="490" y="690" as="sourcePoint" />
            <mxPoint x="490.9200000000001" y="639.1200000000001" as="targetPoint" />
          </mxGeometry>
        </mxCell>
      </root>
    </mxGraphModel>
  </diagram>
</mxfile>
